<?xml version="1.0" encoding="UTF-8" standalone="no"?>
<svg
   xmlns:dc="http://purl.org/dc/elements/1.1/"
   xmlns:cc="http://creativecommons.org/ns#"
   xmlns:rdf="http://www.w3.org/1999/02/22-rdf-syntax-ns#"
   xmlns:svg="http://www.w3.org/2000/svg"
   xmlns="http://www.w3.org/2000/svg"
   xmlns:sodipodi="http://sodipodi.sourceforge.net/DTD/sodipodi-0.dtd"
   xmlns:inkscape="http://www.inkscape.org/namespaces/inkscape"
   width="210mm"
   height="297mm"
   viewBox="0 0 210 297"
   version="1.1"
   id="svg8"
   inkscape:version="1.0.1 (3bc2e813f5, 2020-09-07)"
   sodipodi:docname="BRAINSCORE.svg">
  <defs
     id="defs2" />
  <sodipodi:namedview
     id="base"
     pagecolor="#ffffff"
     bordercolor="#666666"
     borderopacity="1.0"
     inkscape:pageopacity="0.0"
     inkscape:pageshadow="2"
     inkscape:zoom="1.3560976"
     inkscape:cx="148.78343"
     inkscape:cy="379.24493"
     inkscape:document-units="mm"
     inkscape:current-layer="g1097"
     inkscape:document-rotation="0"
     showgrid="false"
     inkscape:snap-bbox="true"
     inkscape:bbox-paths="true"
     inkscape:bbox-nodes="true"
     inkscape:snap-bbox-edge-midpoints="true"
     inkscape:snap-bbox-midpoints="true"
     inkscape:object-paths="true"
     inkscape:snap-intersection-paths="true"
     inkscape:snap-smooth-nodes="true"
     showguides="true"
     inkscape:guide-bbox="true"
     inkscape:window-width="1283"
     inkscape:window-height="768"
     inkscape:window-x="264"
     inkscape:window-y="17"
     inkscape:window-maximized="0"
     inkscape:snap-global="true"
     inkscape:snap-midpoints="true"
     inkscape:snap-object-midpoints="true">
    <inkscape:grid
       type="xygrid"
       id="grid10" />
  </sodipodi:namedview>
  <metadata
     id="metadata5">
    <rdf:RDF>
      <cc:Work
         rdf:about="">
        <dc:format>image/svg+xml</dc:format>
        <dc:type
           rdf:resource="http://purl.org/dc/dcmitype/StillImage" />
        <dc:title />
      </cc:Work>
    </rdf:RDF>
  </metadata>
  <g
     inkscape:label="Layer 1"
     inkscape:groupmode="layer"
     id="layer1">
    <g
       id="g1107"
       transform="matrix(2.4101748,0,0,2.4101748,-46.70134,-61.389191)">
      <path
         style="fill:#ffcc00;stroke-width:1"
         d="m 40.348958,97.234375 v 1.322917 1.322916 h 6.614584 v -1.322916 h -5.291667 v -1.322917 z"
         id="path135" />
      <path
         style="fill:#ffcc00;stroke-width:1"
         d="m 42.994792,90.619792 v 1.322916 h 5.291666 v 1.322917 h 1.322917 v -1.322917 -1.322916 z"
         id="path133" />
      <path
         style="fill:#ff6600;stroke-width:1"
         d="m 40.348958,90.619792 v 5.291666 h 1.322917 6.614583 v 3.96875 h 1.322917 v -3.96875 -1.322916 h -7.9375 v -3.96875 z"
         id="rect16" />
      <text
         xml:space="preserve"
         style="font-style:normal;font-variant:normal;font-weight:bold;font-stretch:normal;font-size:2.02565px;line-height:1.25;font-family:Impact;-inkscape-font-specification:'Impact Bold';stroke-width:0.0492195"
         x="52.1516"
         y="94.962624"
         id="text44"
         transform="scale(1.03317,0.9678949)"><tspan
           sodipodi:role="line"
           id="tspan42"
           x="52.1516"
           y="94.962624"
           style="font-style:normal;font-variant:normal;font-weight:bold;font-stretch:normal;font-size:2.02565px;font-family:'Segoe UI';-inkscape-font-specification:'Segoe UI Bold';stroke-width:0.0492195">BRAINSCORE</tspan><tspan
           sodipodi:role="line"
           x="52.1516"
           y="97.697914"
           style="font-style:normal;font-variant:normal;font-weight:bold;font-stretch:normal;font-size:2.02565px;font-family:'Segoe UI';-inkscape-font-specification:'Segoe UI Bold';stroke-width:0.0492195"
           id="tspan46">CENTRE FOR </tspan><tspan
           sodipodi:role="line"
           x="52.1516"
           y="100.4332"
           style="font-style:normal;font-variant:normal;font-weight:bold;font-stretch:normal;font-size:2.02565px;font-family:'Segoe UI';-inkscape-font-specification:'Segoe UI Bold';stroke-width:0.0492195"
           id="tspan48">MANAGEMENT </tspan><tspan
           sodipodi:role="line"
           x="52.1516"
           y="103.1685"
           style="font-style:normal;font-variant:normal;font-weight:bold;font-stretch:normal;font-size:2.02565px;font-family:'Segoe UI';-inkscape-font-specification:'Segoe UI Bold';stroke-width:0.0492195"
           id="tspan50">AND LEADERSHIP</tspan></text>
    </g>
    <g
       id="g1115"
       transform="matrix(2.0375233,0,0,2.0375233,-18.261277,-49.032113)">
      <path
         style="fill:#ff6600;stroke-width:0.60609"
         d="m 48.758926,120.57441 -0.56696,0.56697 -0.566966,0.56697 2.834821,2.83482 0.566968,-0.56697 -2.267858,-2.26785 0.566961,-0.56697 z"
         id="path123" />
      <path
         style="fill:#ff6600;stroke-width:0.60609"
         d="m 52.72768,118.87352 -0.566966,0.56697 2.267859,2.26786 -0.566969,0.56696 0.566965,0.56695 0.566966,-0.56695 0.566965,-0.56696 z"
         id="path121" />
      <path
         style="fill:#d4aa00;stroke-width:0.60609"
         d="m 51.593752,117.73958 -2.26786,2.26787 0.566966,0.56696 2.83482,2.83482 -1.700892,1.7009 0.566962,0.56695 1.700896,-1.70088 0.566964,-0.56697 -3.401786,-3.40178 1.700892,-1.70088 z"
         id="path66" />
      <text
         xml:space="preserve"
         style="font-style:normal;font-variant:normal;font-weight:600;font-stretch:normal;font-size:2.51463px;line-height:1.25;font-family:'Segoe UI';-inkscape-font-specification:'Segoe UI Semi-Bold';text-align:center;text-anchor:middle;stroke-width:0.0611009"
         x="52.152462"
         y="127.60831"
         id="text76"
         transform="scale(0.98873993,1.0113883)"><tspan
           sodipodi:role="line"
           x="52.152462"
           y="127.60831"
           style="font-style:normal;font-variant:normal;font-weight:600;font-stretch:normal;font-size:2.51463px;font-family:'Segoe UI';-inkscape-font-specification:'Segoe UI Semi-Bold';text-align:center;text-anchor:middle;stroke-width:0.0611009"
           id="tspan70">BRAINSCORE CENTRE FOR </tspan><tspan
           sodipodi:role="line"
           x="52.152462"
           y="130.75159"
           style="font-style:normal;font-variant:normal;font-weight:600;font-stretch:normal;font-size:2.51463px;font-family:'Segoe UI';-inkscape-font-specification:'Segoe UI Semi-Bold';text-align:center;text-anchor:middle;stroke-width:0.0611009"
           id="tspan74">MANAGEMENT AND LEADERSHIP</tspan></text>
    </g>
    <g
       id="g1125"
       transform="matrix(3.0005184,0,0,3.0005184,-79.648585,-249.87661)">
      <path
         id="path116"
         style="fill:#ff6600;stroke-width:2.29073"
         d="m 180.35742,621.42773 -2.14258,2.14454 8.57032,8.57031 -2.14258,2.14258 2.14258,2.14257 2.14257,-2.14257 2.14454,-2.14258 z m -15,6.42969 -2.14258,2.14258 -2.14257,2.14258 10.71289,10.71484 2.14257,-2.14258 -8.57031,-8.57226 L 167.5,630 Z"
         transform="scale(0.26458333)" />
      <path
         style="fill:#d4aa00;stroke-width:0.60609"
         d="m 46.585567,163.28571 -2.26786,2.26787 0.566966,0.56696 2.83482,2.83482 -1.700892,1.7009 0.566962,0.56695 1.700896,-1.70088 0.566964,-0.56697 -3.401786,-3.40178 1.700892,-1.70088 z"
         id="path88" />
      <text
         xml:space="preserve"
         style="font-style:normal;font-variant:normal;font-weight:bold;font-stretch:normal;font-size:1.71741px;line-height:1.25;font-family:Impact;-inkscape-font-specification:'Impact Bold';stroke-width:0.0417297"
         x="51.758141"
         y="169.92453"
         id="text98"
         transform="scale(1.03317,0.96789492)"><tspan
           sodipodi:role="line"
           id="tspan90"
           x="51.758141"
           y="169.92453"
           style="font-style:normal;font-variant:normal;font-weight:bold;font-stretch:normal;font-size:1.71741px;font-family:'Segoe UI';-inkscape-font-specification:'Segoe UI Bold';stroke-width:0.0417297">BRAINSCORE</tspan><tspan
           sodipodi:role="line"
           x="51.758141"
           y="172.24359"
           style="font-style:normal;font-variant:normal;font-weight:bold;font-stretch:normal;font-size:1.71741px;font-family:'Segoe UI';-inkscape-font-specification:'Segoe UI Bold';stroke-width:0.0417297"
           id="tspan92">CENTRE FOR </tspan><tspan
           sodipodi:role="line"
           x="51.758141"
           y="174.56267"
           style="font-style:normal;font-variant:normal;font-weight:bold;font-stretch:normal;font-size:1.71741px;font-family:'Segoe UI';-inkscape-font-specification:'Segoe UI Bold';stroke-width:0.0417297"
           id="tspan94">MANAGEMENT </tspan><tspan
           sodipodi:role="line"
           x="51.758141"
           y="176.88173"
           style="font-style:normal;font-variant:normal;font-weight:bold;font-stretch:normal;font-size:1.71741px;font-family:'Segoe UI';-inkscape-font-specification:'Segoe UI Bold';stroke-width:0.0417297"
           id="tspan96">AND LEADERSHIP</tspan></text>
      <rect
         style="fill:#ff6600;stroke-width:1"
         id="rect108"
         width="0.47247022"
         height="7.9375"
         x="51.782734"
         y="163.28571" />
    </g>
    <g
       aria-label="BS"
       id="text139"
       style="font-size:10.5833px;line-height:1.25;font-family:'Baskerville Old Face';-inkscape-font-specification:'Baskerville Old Face';stroke-width:0.264583">
      <g
         id="g1097"
         transform="matrix(0.83303199,0,0,0.85089187,60.622187,310.42574)">
        <g
           id="g1059"
           style="font-size:10.5833px;line-height:1.25;font-family:'Baskerville Old Face';-inkscape-font-specification:'Baskerville Old Face';stroke-width:0.264583"
           transform="matrix(4.0245985,0,0,4.0245985,-210.26773,-362.28652)">
          <path
             id="path182"
             style="fill:#8c5000;fill-opacity:1;stroke-width:0.999999"
             d="m 107.38477,69.054688 v 0.449218 c 0.74218,0.03906 1.34765,0.143228 1.8164,0.3125 0.46875,0.16927 0.87891,0.44271 1.23047,0.820313 0.41668,0.416665 0.69663,0.944011 0.83984,1.582031 0.14322,0.638017 0.21485,1.627607 0.21485,2.96875 v 14.394531 c 0,1.34114 -0.0716,2.330731 -0.21485,2.96875 -0.14322,0.63802 -0.42317,1.165366 -0.83984,1.582031 -0.35156,0.364574 -0.76172,0.638014 -1.23047,0.820313 -0.45572,0.169272 -1.0612,0.273445 -1.8164,0.3125 v 0.449219 h 8.3789 V 89.914062 81.867188 81.261719 80.054688 69.660156 h 1.81641 c 1.39322,0 2.42838,0.07813 3.10547,0.234375 0.6901,0.156251 1.30208,0.449222 1.83593,0.878907 0.61198,0.49479 1.10026,1.191409 1.46485,2.089843 0.3776,0.885415 0.5664,1.822919 0.5664,2.8125 0,0.937497 -0.18229,1.796879 -0.54687,2.578125 -0.33073,0.722697 -0.80483,1.32007 -1.41211,1.800782 3.51551,-0.08305 6.48748,-1.957467 6.5293,-5.003907 0,-1.054684 -0.23438,-2.00521 -0.70313,-2.851562 -0.45573,-0.846352 -1.10677,-1.52995 -1.95312,-2.050781 -0.97656,-0.585933 -2.20704,-0.937497 -3.69141,-1.054688 -0.40364,-0.02605 -1.25651,-0.03906 -2.55859,-0.03906 z"
             transform="scale(0.26458333)"
             sodipodi:nodetypes="ccscssssccccccccccscccsccccccsc" />
          <path
             id="path202"
             style="fill:#ff6600;stroke-width:0.207633"
             d="m 32.542076,19.661659 c -0.323841,0.0432 -0.614968,0.138586 -0.871589,0.288647 -0.203968,0.118256 -0.363613,0.260091 -0.479194,0.425651 -0.112178,0.165557 -0.168078,0.337329 -0.168078,0.515788 0,0.290264 0.146396,0.536713 0.438748,0.738822 h 3.85e-4 c 0.105328,0.102623 0.242659,0.203297 0.412426,0.302899 0.173369,0.09971 0.421527,0.22282 0.744472,0.367871 0.367136,0.166202 0.638577,0.30338 0.815349,0.412168 0.180168,0.108787 0.320134,0.222155 0.418717,0.340007 0.09519,0.114831 0.169932,0.252653 0.224317,0.412811 0.05779,0.160159 0.08642,0.316989 0.08642,0.471104 0,0.356581 -0.127036,0.651104 -0.381995,0.883788 -0.254958,0.232684 -0.57837,0.348867 -0.969302,0.348867 -0.407397,0 -0.7639,-0.135489 -1.070869,-0.403309 v 0.326653 c 0.404532,0.154116 0.82623,0.231123 1.264755,0.231123 0.479324,0 0.895674,-0.09519 1.249218,-0.285565 0.353539,-0.193397 0.618544,-0.466928 0.795318,-0.820486 0.125778,-0.253838 0.188622,-0.519747 0.188622,-0.797758 -0.05136,-0.932478 -0.791099,-1.570423 -1.56791,-1.82933 -0.05033,-0.01618 -0.04577,-0.01454 -0.05033,-0.01618 l -0.716993,-0.219053 c -0.730877,-0.219311 -1.096292,-0.508541 -1.096292,-0.867608 0,-0.09031 0.02579,-0.180367 0.07678,-0.270671 0.05439,-0.0903 0.127525,-0.168963 0.21931,-0.235617 0.121148,-0.08959 0.268616,-0.152021 0.43772,-0.192473 z"
             sodipodi:nodetypes="cccscccccccsssccsccccccscccc" />
        </g>
        <rect
           style="font-size:10.5833px;line-height:1.25;font-family:'Baskerville Old Face';-inkscape-font-specification:'Baskerville Old Face';opacity:0.8;fill:#000000;stroke-width:0.147742"
           id="rect226"
           width="0.28250179"
           height="9.6102123"
           x="36.532719"
           y="16.992523"
           transform="matrix(4.0245985,0,0,4.0245985,-129.23024,-297.16635)" />
        <text
           xml:space="preserve"
           style="font-size:6.37853px;line-height:1.25;font-family:'Baskerville Old Face';-inkscape-font-specification:'Baskerville Old Face';text-align:start;text-anchor:start;stroke-width:0.0421913"
           x="22.589304"
           y="-219.27373"
           id="text192"><tspan
             sodipodi:role="line"
             id="tspan188"
             x="22.589304"
             y="-219.27373"
             style="text-align:start;text-anchor:start;stroke-width:0.0421913">BRAINSCORE </tspan><tspan
             sodipodi:role="line"
             x="22.589304"
             y="-211.30057"
             style="text-align:start;text-anchor:start;stroke-width:0.0421913"
             id="tspan194">CENTRE FOR </tspan><tspan
             sodipodi:role="line"
             x="22.589304"
             y="-203.32741"
             style="text-align:start;text-anchor:start;stroke-width:0.0421913"
             id="tspan190">MANAGEMENT </tspan><tspan
             sodipodi:role="line"
             x="22.589304"
             y="-195.35423"
             style="text-align:start;text-anchor:start;stroke-width:0.0421913"
             id="tspan196">AND LEADERSHIP</tspan></text>
      </g>
      <g
         id="g186"
         transform="matrix(1.8077319,0,0,1.8077319,1.1795638,-21.111611)">
        <g
           id="g1065"
           transform="translate(18.689383,32.589025)">
          <g
             id="g1082">
            <text
               xml:space="preserve"
               style="font-size:3.58709px;line-height:1.25;font-family:'Baskerville Old Face';-inkscape-font-specification:'Baskerville Old Face';text-align:center;text-anchor:middle;stroke-width:0.0237272"
               x="29.695105"
               y="31.908262"
               id="text172"><tspan
                 sodipodi:role="line"
                 id="tspan170"
                 x="29.695105"
                 y="31.908262"
                 style="text-align:center;text-anchor:middle;stroke-width:0.0237272">BRAINSCORE  CENTRE FOR </tspan><tspan
                 sodipodi:role="line"
                 x="29.695105"
                 y="36.392124"
                 style="text-align:center;text-anchor:middle;stroke-width:0.0237272"
                 id="tspan174">MANAGEMENT AND LEADERSHIP</tspan></text>
            <g
               id="g1509"
               transform="translate(-8.2422595)">
              <g
                 id="g1516">
                <g
                   id="g1071"
                   transform="translate(-3.0737402,2.0412225)">
                  <path
                     id="path1061"
                     style="fill:#d4aa00;fill-opacity:1;stroke-width:0.999999"
                     d="m 107.38477,69.054688 v 0.449218 c 0.74218,0.03906 1.34765,0.143228 1.8164,0.3125 0.46875,0.16927 0.87891,0.44271 1.23047,0.820313 0.41668,0.416665 0.69663,0.944011 0.83984,1.582031 0.14322,0.638017 0.21485,1.627607 0.21485,2.96875 v 14.394531 c 0,1.34114 -0.0716,2.330731 -0.21485,2.96875 -0.14322,0.63802 -0.42317,1.165366 -0.83984,1.582031 -0.35156,0.364574 -0.76172,0.638014 -1.23047,0.820313 -0.45572,0.169272 -1.0612,0.273445 -1.8164,0.3125 v 0.449219 h 8.3789 V 89.914062 81.867188 81.261719 80.054688 69.660156 h 1.81641 c 1.39322,0 2.42838,0.07813 3.10547,0.234375 0.6901,0.156251 1.30208,0.449222 1.83593,0.878907 0.61198,0.49479 1.10026,1.191409 1.46485,2.089843 0.3776,0.885415 0.5664,1.822919 0.5664,2.8125 0,0.937497 -0.18229,1.796879 -0.54687,2.578125 -0.33073,0.722697 -0.80483,1.32007 -1.41211,1.800782 3.51551,-0.08305 6.48748,-1.957467 6.5293,-5.003907 0,-1.054684 -0.23438,-2.00521 -0.70313,-2.851562 -0.45573,-0.846352 -1.10677,-1.52995 -1.95312,-2.050781 -0.97656,-0.585933 -2.20704,-0.937497 -3.69141,-1.054688 -0.40364,-0.02605 -1.25651,-0.03906 -2.55859,-0.03906 z"
                     sodipodi:nodetypes="ccscssssccccccccccscccsccccccsc"
                     transform="scale(0.26458333)" />
                  <path
                     id="path1063"
                     style="fill:#ff6600;stroke-width:0.207633"
                     d="m 32.542076,19.661659 c -0.323841,0.0432 -0.614968,0.138586 -0.871589,0.288647 -0.203968,0.118256 -0.363613,0.260091 -0.479194,0.425651 -0.112178,0.165557 -0.168078,0.337329 -0.168078,0.515788 0,0.290264 0.146396,0.536713 0.438748,0.738822 h 3.85e-4 c 0.105328,0.102623 0.242659,0.203297 0.412426,0.302899 0.173369,0.09971 0.421527,0.22282 0.744472,0.367871 0.367136,0.166202 0.638577,0.30338 0.815349,0.412168 0.180168,0.108787 0.320134,0.222155 0.418717,0.340007 0.09519,0.114831 0.169932,0.252653 0.224317,0.412811 0.05779,0.160159 0.08642,0.316989 0.08642,0.471104 0,0.356581 -0.127036,0.651104 -0.381995,0.883788 -0.254958,0.232684 -0.57837,0.348867 -0.969302,0.348867 -0.407397,0 -0.7639,-0.135489 -1.070869,-0.403309 v 0.326653 c 0.404532,0.154116 0.82623,0.231123 1.264755,0.231123 0.479324,0 0.895674,-0.09519 1.249218,-0.285565 0.353539,-0.193397 0.618544,-0.466928 0.795318,-0.820486 0.125778,-0.253838 0.188622,-0.519747 0.188622,-0.797758 -0.05136,-0.932478 -0.791099,-1.570423 -1.56791,-1.82933 -0.05033,-0.01618 -0.04577,-0.01454 -0.05033,-0.01618 l -0.716993,-0.219053 c -0.730877,-0.219311 -1.096292,-0.508541 -1.096292,-0.867608 0,-0.09031 0.02579,-0.180367 0.07678,-0.270671 0.05439,-0.0903 0.127525,-0.168963 0.21931,-0.235617 0.121148,-0.08959 0.268616,-0.152021 0.43772,-0.192473 z"
                     sodipodi:nodetypes="cccscccccccsssccsccccccscccc" />
                </g>
                <g
                   aria-label="CML"
                   id="text1487"
                   style="font-size:9.89827px;line-height:1.25;font-family:'Baskerville Old Face';-inkscape-font-specification:'Baskerville Old Face';fill:#803300;stroke-width:0.0654729"
                   transform="translate(0.1485398,-2.8641736e-5)">
                  <path
                     id="path1493"
                     style="fill:#d4aa00;stroke-width:0.0666358"
                     d="m 35.564084,20.31194 c -0.416475,0 -0.833117,0.0705 -1.249591,0.211514 -0.413196,0.137731 -0.768752,0.324532 -1.067172,0.560644 -0.386959,0.308255 -0.688681,0.716565 -0.905117,1.22486 -0.216435,0.505016 -0.324688,1.057664 -0.324688,1.657781 -2e-6,0.783758 0.185132,1.459371 0.555695,2.026695 0.370565,0.564043 0.885462,0.95431 1.544605,1.170745 0.413196,0.134451 0.846215,0.201623 1.29876,0.201623 0.478809,0 0.899939,-0.07547 1.263848,-0.225481 v 0.05819 h 2.267594 v -0.113176 c -0.18692,-0.0099 -0.339304,-0.03593 -0.45736,-0.07855 -0.114775,-0.04263 -0.218031,-0.111468 -0.309851,-0.206568 -0.101655,-0.104938 -0.172161,-0.237902 -0.211515,-0.398589 -0.03607,-0.160686 -0.05412,-0.409947 -0.05412,-0.747718 v -0.0038 -0.432041 -3.873005 l 2.518384,5.853439 h 0.103284 l 2.533222,-5.942177 v 4.397572 c 0,0.33449 -0.0197,0.583751 -0.05906,0.747718 -0.03607,0.160686 -0.104909,0.293651 -0.206568,0.398588 -0.09182,0.09182 -0.196742,0.160662 -0.314798,0.206569 -0.114775,0.04263 -0.267159,0.06872 -0.45736,0.07855 V 27.1985 h 1.077355 2.065971 3.807252 l 0.06372,-2.016802 -0.11783,-0.0099 c -0.06231,0.304978 -0.131145,0.550904 -0.206568,0.737827 -0.07215,0.18692 -0.165691,0.354302 -0.280467,0.501873 -0.170526,0.216435 -0.390369,0.377148 -0.659272,0.482089 -0.265625,0.101653 -0.593432,0.152452 -0.983672,0.152452 -0.373843,0 -0.673898,-0.05412 -0.900171,-0.162345 -0.226273,-0.111497 -0.396697,-0.285254 -0.511473,-0.521366 -0.06558,-0.134454 -0.110007,-0.30821 -0.132961,-0.521366 -0.02295,-0.213156 -0.03433,-0.53792 -0.03433,-0.974069 v -2.838129 c 0,-0.34433 0.01971,-0.59859 0.05906,-0.762556 0.03936,-0.163967 0.114564,-0.299973 0.22606,-0.40819 0.08855,-0.08526 0.190421,-0.147722 0.305197,-0.187075 0.114777,-0.03936 0.262159,-0.06378 0.442522,-0.07361 v -0.113176 h -1.077063 -2.021749 -0.04422 v 0.10532 l -2.1646,5.153145 -2.129688,-5.258465 h -0.977852 c -0.135307,0 0,0 -0.135307,0 h -1.021784 v 0.01077 C 36.290424,20.375205 35.917597,20.31195 35.564063,20.31195 Z m 0.06401,0.162344 c 0.245948,0 0.467167,0.03942 0.663927,0.118122 0.196759,0.07871 0.386893,0.205002 0.570536,0.378806 0.242669,0.229553 0.428093,0.481855 0.555987,0.75732 0.07215,0.154127 0.165691,0.388679 0.280467,0.703494 0.0034,0.0084 0.01043,0.02721 0.01426,0.03695 v 3.184929 c 0,0.06166 -0.0013,0.117247 -0.0026,0.17311 -0.06933,0.18617 -0.151743,0.348586 -0.247881,0.486162 -0.163965,0.236112 -0.395184,0.419579 -0.693603,0.550752 -0.298418,0.127894 -0.634559,0.19202 -1.008401,0.19202 -0.747685,0 -1.347795,-0.25926 -1.800343,-0.777394 -0.245949,-0.278743 -0.432748,-0.62459 -0.560642,-1.037786 -0.127894,-0.413195 -0.192021,-0.877298 -0.192021,-1.392152 0,-0.606675 0.09354,-1.147657 0.280467,-1.62316 0.131174,-0.33777 0.299931,-0.637824 0.506528,-0.900169 0.206596,-0.265626 0.429773,-0.469093 0.669164,-0.610104 0.272184,-0.160687 0.593614,-0.2409 0.964179,-0.2409 z"
                     sodipodi:nodetypes="scccsccscccccccsccccccscccccccccccccsccsssscsccccccccccccsssccccscccscsscccsss" />
                </g>
              </g>
            </g>
            <g
               id="g1532"
               transform="matrix(1.4436158,0,0,1.6851597,-51.033945,12.235562)">
              <g
                 id="g1530">
                <g
                   id="g1524"
                   transform="translate(-3.0737402,2.0412225)">
                  <path
                     id="path1520"
                     style="fill:#d4aa00;fill-opacity:1;stroke-width:0.999999"
                     d="m 107.38477,69.054688 v 0.449218 c 0.74218,0.03906 1.34765,0.143228 1.8164,0.3125 0.46875,0.16927 0.87891,0.44271 1.23047,0.820313 0.41668,0.416665 0.69663,0.944011 0.83984,1.582031 0.14322,0.638017 0.21485,1.627607 0.21485,2.96875 v 14.394531 c 0,1.34114 -0.0716,2.330731 -0.21485,2.96875 -0.14322,0.63802 -0.42317,1.165366 -0.83984,1.582031 -0.35156,0.364574 -0.76172,0.638014 -1.23047,0.820313 -0.45572,0.169272 -1.0612,0.273445 -1.8164,0.3125 v 0.449219 h 8.3789 V 89.914062 81.867188 81.261719 80.054688 69.660156 h 1.81641 c 1.39322,0 2.42838,0.07813 3.10547,0.234375 0.6901,0.156251 1.30208,0.449222 1.83593,0.878907 0.61198,0.49479 1.10026,1.191409 1.46485,2.089843 0.3776,0.885415 0.5664,1.822919 0.5664,2.8125 0,0.937497 -0.18229,1.796879 -0.54687,2.578125 -0.33073,0.722697 -0.80483,1.32007 -1.41211,1.800782 3.51551,-0.08305 6.48748,-1.957467 6.5293,-5.003907 0,-1.054684 -0.23438,-2.00521 -0.70313,-2.851562 -0.45573,-0.846352 -1.10677,-1.52995 -1.95312,-2.050781 -0.97656,-0.585933 -2.20704,-0.937497 -3.69141,-1.054688 -0.40364,-0.02605 -1.25651,-0.03906 -2.55859,-0.03906 z"
                     sodipodi:nodetypes="ccscssssccccccccccscccsccccccsc"
                     transform="scale(0.26458333)" />
                  <path
                     id="path1522"
                     style="fill:#ff6600;stroke-width:0.207633"
                     d="m 32.542076,19.661659 c -0.323841,0.0432 -0.614968,0.138586 -0.871589,0.288647 -0.203968,0.118256 -0.363613,0.260091 -0.479194,0.425651 -0.112178,0.165557 -0.168078,0.337329 -0.168078,0.515788 0,0.290264 0.146396,0.536713 0.438748,0.738822 h 3.85e-4 c 0.105328,0.102623 0.242659,0.203297 0.412426,0.302899 0.173369,0.09971 0.421527,0.22282 0.744472,0.367871 0.367136,0.166202 0.638577,0.30338 0.815349,0.412168 0.180168,0.108787 0.320134,0.222155 0.418717,0.340007 0.09519,0.114831 0.169932,0.252653 0.224317,0.412811 0.05779,0.160159 0.08642,0.316989 0.08642,0.471104 0,0.356581 -0.127036,0.651104 -0.381995,0.883788 -0.254958,0.232684 -0.57837,0.348867 -0.969302,0.348867 -0.407397,0 -0.7639,-0.135489 -1.070869,-0.403309 v 0.326653 c 0.404532,0.154116 0.82623,0.231123 1.264755,0.231123 0.479324,0 0.895674,-0.09519 1.249218,-0.285565 0.353539,-0.193397 0.618544,-0.466928 0.795318,-0.820486 0.125778,-0.253838 0.188622,-0.519747 0.188622,-0.797758 -0.05136,-0.932478 -0.791099,-1.570423 -1.56791,-1.82933 -0.05033,-0.01618 -0.04577,-0.01454 -0.05033,-0.01618 l -0.716993,-0.219053 c -0.730877,-0.219311 -1.096292,-0.508541 -1.096292,-0.867608 0,-0.09031 0.02579,-0.180367 0.07678,-0.270671 0.05439,-0.0903 0.127525,-0.168963 0.21931,-0.235617 0.121148,-0.08959 0.268616,-0.152021 0.43772,-0.192473 z"
                     sodipodi:nodetypes="cccscccccccsssccsccccccscccc" />
                </g>
                <g
                   aria-label="CML"
                   id="g1528"
                   style="font-size:9.89827px;line-height:1.25;font-family:'Baskerville Old Face';-inkscape-font-specification:'Baskerville Old Face';fill:#803300;stroke-width:0.0654729"
                   transform="translate(0.1485398,-2.8641736e-5)">
                  <path
                     id="path1526"
                     style="fill:#d4aa00;stroke-width:0.0666358"
                     d="m 35.564084,20.31194 c -0.416475,0 -0.833117,0.0705 -1.249591,0.211514 -0.413196,0.137731 -0.768752,0.324532 -1.067172,0.560644 -0.386959,0.308255 -0.688681,0.716565 -0.905117,1.22486 -0.216435,0.505016 -0.324688,1.057664 -0.324688,1.657781 -2e-6,0.783758 0.185132,1.459371 0.555695,2.026695 0.370565,0.564043 0.885462,0.95431 1.544605,1.170745 0.413196,0.134451 0.846215,0.201623 1.29876,0.201623 0.478809,0 0.899939,-0.07547 1.263848,-0.225481 v 0.05819 h 2.267594 v -0.113176 c -0.18692,-0.0099 -0.339304,-0.03593 -0.45736,-0.07855 -0.114775,-0.04263 -0.218031,-0.111468 -0.309851,-0.206568 -0.101655,-0.104938 -0.172161,-0.237902 -0.211515,-0.398589 -0.03607,-0.160686 -0.05412,-0.409947 -0.05412,-0.747718 v -0.0038 -0.432041 -3.873005 l 2.518384,5.853439 h 0.103284 l 2.533222,-5.942177 v 4.397572 c 0,0.33449 -0.0197,0.583751 -0.05906,0.747718 -0.03607,0.160686 -0.104909,0.293651 -0.206568,0.398588 -0.09182,0.09182 -0.196742,0.160662 -0.314798,0.206569 -0.114775,0.04263 -0.267159,0.06872 -0.45736,0.07855 V 27.1985 h 1.077355 2.065971 3.807252 l 0.06372,-2.016802 -0.11783,-0.0099 c -0.06231,0.304978 -0.131145,0.550904 -0.206568,0.737827 -0.07215,0.18692 -0.165691,0.354302 -0.280467,0.501873 -0.170526,0.216435 -0.390369,0.377148 -0.659272,0.482089 -0.265625,0.101653 -0.593432,0.152452 -0.983672,0.152452 -0.373843,0 -0.673898,-0.05412 -0.900171,-0.162345 -0.226273,-0.111497 -0.396697,-0.285254 -0.511473,-0.521366 -0.06558,-0.134454 -0.110007,-0.30821 -0.132961,-0.521366 -0.02295,-0.213156 -0.03433,-0.53792 -0.03433,-0.974069 v -2.838129 c 0,-0.34433 0.01971,-0.59859 0.05906,-0.762556 0.03936,-0.163967 0.114564,-0.299973 0.22606,-0.40819 0.08855,-0.08526 0.190421,-0.147722 0.305197,-0.187075 0.114777,-0.03936 0.262159,-0.06378 0.442522,-0.07361 v -0.113176 h -1.077063 -2.021749 -0.04422 v 0.10532 l -2.1646,5.153145 -2.129688,-5.258465 h -0.977852 c -0.135307,0 0,0 -0.135307,0 h -1.021784 v 0.01077 C 36.290424,20.375205 35.917597,20.31195 35.564063,20.31195 Z m 0.06401,0.162344 c 0.245948,0 0.467167,0.03942 0.663927,0.118122 0.196759,0.07871 0.386893,0.205002 0.570536,0.378806 0.242669,0.229553 0.428093,0.481855 0.555987,0.75732 0.07215,0.154127 0.165691,0.388679 0.280467,0.703494 0.0034,0.0084 0.01043,0.02721 0.01426,0.03695 v 3.184929 c 0,0.06166 -0.0013,0.117247 -0.0026,0.17311 -0.06933,0.18617 -0.151743,0.348586 -0.247881,0.486162 -0.163965,0.236112 -0.395184,0.419579 -0.693603,0.550752 -0.298418,0.127894 -0.634559,0.19202 -1.008401,0.19202 -0.747685,0 -1.347795,-0.25926 -1.800343,-0.777394 -0.245949,-0.278743 -0.432748,-0.62459 -0.560642,-1.037786 -0.127894,-0.413195 -0.192021,-0.877298 -0.192021,-1.392152 0,-0.606675 0.09354,-1.147657 0.280467,-1.62316 0.131174,-0.33777 0.299931,-0.637824 0.506528,-0.900169 0.206596,-0.265626 0.429773,-0.469093 0.669164,-0.610104 0.272184,-0.160687 0.593614,-0.2409 0.964179,-0.2409 z"
                     sodipodi:nodetypes="scccsccscccccccsccccccscccccccccccccsccsssscsccccccccccccsssccccscccscsscccsss" />
                </g>
              </g>
            </g>
          </g>
        </g>
      </g>
    </g>
  </g>
</svg>
