<?xml version="1.0" encoding="UTF-8" standalone="no"?>
<svg
   xmlns:dc="http://purl.org/dc/elements/1.1/"
   xmlns:cc="http://creativecommons.org/ns#"
   xmlns:rdf="http://www.w3.org/1999/02/22-rdf-syntax-ns#"
   xmlns:svg="http://www.w3.org/2000/svg"
   xmlns="http://www.w3.org/2000/svg"
   xmlns:sodipodi="http://sodipodi.sourceforge.net/DTD/sodipodi-0.dtd"
   xmlns:inkscape="http://www.inkscape.org/namespaces/inkscape"
   width="297mm"
   height="210mm"
   viewBox="0 0 297 210"
   version="1.1"
   id="svg1578"
   inkscape:export-filename="C:\Users\Marx\Desktop\inkscape logos\GOLD.png"
   inkscape:export-xdpi="96"
   inkscape:export-ydpi="96"
   inkscape:version="1.0.1 (3bc2e813f5, 2020-09-07)"
   sodipodi:docname="drawing-3.svg">
  <defs
     id="defs1572" />
  <sodipodi:namedview
     id="base"
     pagecolor="#ffffff"
     bordercolor="#666666"
     borderopacity="1.0"
     inkscape:pageopacity="0.0"
     inkscape:pageshadow="2"
     inkscape:zoom="0.46134406"
     inkscape:cx="589.51316"
     inkscape:cy="541.23672"
     inkscape:document-units="mm"
     inkscape:current-layer="layer1"
     inkscape:document-rotation="0"
     showgrid="false"
     inkscape:window-width="1267"
     inkscape:window-height="729"
     inkscape:window-x="26"
     inkscape:window-y="0"
     inkscape:window-maximized="0" />
  <metadata
     id="metadata1575">
    <rdf:RDF>
      <cc:Work
         rdf:about="">
        <dc:format>image/svg+xml</dc:format>
        <dc:type
           rdf:resource="http://purl.org/dc/dcmitype/StillImage" />
        <dc:title></dc:title>
      </cc:Work>
    </rdf:RDF>
  </metadata>
  <g
     inkscape:label="Layer 1"
     inkscape:groupmode="layer"
     id="layer1">
    <g
       id="g186"
       transform="matrix(4.3792146,0,0,4.3792146,-41.590559,-209.55982)"
       style="font-size:10.5833px;line-height:1.25;font-family:'Baskerville Old Face';-inkscape-font-specification:'Baskerville Old Face';stroke-width:0.264583">
      <g
         id="g1065"
         transform="translate(18.689383,32.589025)">
        <g
           id="g1082">
          <text
             xml:space="preserve"
             style="font-size:3.58709px;line-height:1.25;font-family:'Baskerville Old Face';-inkscape-font-specification:'Baskerville Old Face';text-align:center;text-anchor:middle;stroke-width:0.0237272"
             x="24.491234"
             y="32.116417"
             id="text172"><tspan
               sodipodi:role="line"
               id="tspan170"
               x="24.491234"
               y="32.116417"
               style="text-align:center;text-anchor:middle;stroke-width:0.0237272">BRAINSCORE  CENTRE FOR </tspan><tspan
               sodipodi:role="line"
               x="24.491234"
               y="36.600281"
               style="text-align:center;text-anchor:middle;stroke-width:0.0237272"
               id="tspan174">MANAGEMENT AND LEADERSHIP</tspan></text>
          <g
             id="g1509"
             transform="translate(-13.446131,0.20815486)">
            <g
               id="g1516">
              <g
                 id="g1071"
                 transform="translate(-3.0737402,2.0412225)">
                <path
                   id="path1061"
                   style="fill:#d4aa00;fill-opacity:1;stroke-width:0.999999"
                   d="m 107.38477,69.054688 v 0.449218 c 0.74218,0.03906 1.34765,0.143228 1.8164,0.3125 0.46875,0.16927 0.87891,0.44271 1.23047,0.820313 0.41668,0.416665 0.69663,0.944011 0.83984,1.582031 0.14322,0.638017 0.21485,1.627607 0.21485,2.96875 v 14.394531 c 0,1.34114 -0.0716,2.330731 -0.21485,2.96875 -0.14322,0.63802 -0.42317,1.165366 -0.83984,1.582031 -0.35156,0.364574 -0.76172,0.638014 -1.23047,0.820313 -0.45572,0.169272 -1.0612,0.273445 -1.8164,0.3125 v 0.449219 h 8.3789 V 89.914062 81.867188 81.261719 80.054688 69.660156 h 1.81641 c 1.39322,0 2.42838,0.07813 3.10547,0.234375 0.6901,0.156251 1.30208,0.449222 1.83593,0.878907 0.61198,0.49479 1.10026,1.191409 1.46485,2.089843 0.3776,0.885415 0.5664,1.822919 0.5664,2.8125 0,0.937497 -0.18229,1.796879 -0.54687,2.578125 -0.33073,0.722697 -0.80483,1.32007 -1.41211,1.800782 3.51551,-0.08305 6.48748,-1.957467 6.5293,-5.003907 0,-1.054684 -0.23438,-2.00521 -0.70313,-2.851562 -0.45573,-0.846352 -1.10677,-1.52995 -1.95312,-2.050781 -0.97656,-0.585933 -2.20704,-0.937497 -3.69141,-1.054688 -0.40364,-0.02605 -1.25651,-0.03906 -2.55859,-0.03906 z"
                   sodipodi:nodetypes="ccscssssccccccccccscccsccccccsc"
                   transform="scale(0.26458333)" />
                <path
                   id="path1063"
                   style="fill:#ff6600;stroke-width:0.207633"
                   d="m 32.542076,19.661659 c -0.323841,0.0432 -0.614968,0.138586 -0.871589,0.288647 -0.203968,0.118256 -0.363613,0.260091 -0.479194,0.425651 -0.112178,0.165557 -0.168078,0.337329 -0.168078,0.515788 0,0.290264 0.146396,0.536713 0.438748,0.738822 h 3.85e-4 c 0.105328,0.102623 0.242659,0.203297 0.412426,0.302899 0.173369,0.09971 0.421527,0.22282 0.744472,0.367871 0.367136,0.166202 0.638577,0.30338 0.815349,0.412168 0.180168,0.108787 0.320134,0.222155 0.418717,0.340007 0.09519,0.114831 0.169932,0.252653 0.224317,0.412811 0.05779,0.160159 0.08642,0.316989 0.08642,0.471104 0,0.356581 -0.127036,0.651104 -0.381995,0.883788 -0.254958,0.232684 -0.57837,0.348867 -0.969302,0.348867 -0.407397,0 -0.7639,-0.135489 -1.070869,-0.403309 v 0.326653 c 0.404532,0.154116 0.82623,0.231123 1.264755,0.231123 0.479324,0 0.895674,-0.09519 1.249218,-0.285565 0.353539,-0.193397 0.618544,-0.466928 0.795318,-0.820486 0.125778,-0.253838 0.188622,-0.519747 0.188622,-0.797758 -0.05136,-0.932478 -0.791099,-1.570423 -1.56791,-1.82933 -0.05033,-0.01618 -0.04577,-0.01454 -0.05033,-0.01618 l -0.716993,-0.219053 c -0.730877,-0.219311 -1.096292,-0.508541 -1.096292,-0.867608 0,-0.09031 0.02579,-0.180367 0.07678,-0.270671 0.05439,-0.0903 0.127525,-0.168963 0.21931,-0.235617 0.121148,-0.08959 0.268616,-0.152021 0.43772,-0.192473 z"
                   sodipodi:nodetypes="cccscccccccsssccsccccccscccc" />
              </g>
              <g
                 aria-label="CML"
                 id="text1487"
                 style="font-size:9.89827px;line-height:1.25;font-family:'Baskerville Old Face';-inkscape-font-specification:'Baskerville Old Face';fill:#803300;stroke-width:0.0654729"
                 transform="translate(0.1485398,-2.8641736e-5)">
                <path
                   id="path1493"
                   style="fill:#cc9408;stroke-width:0.0666358"
                   d="m 35.564084,20.31194 c -0.416475,0 -0.833117,0.0705 -1.249591,0.211514 -0.413196,0.137731 -0.768752,0.324532 -1.067172,0.560644 -0.386959,0.308255 -0.688681,0.716565 -0.905117,1.22486 -0.216435,0.505016 -0.324688,1.057664 -0.324688,1.657781 -2e-6,0.783758 0.185132,1.459371 0.555695,2.026695 0.370565,0.564043 0.885462,0.95431 1.544605,1.170745 0.413196,0.134451 0.846215,0.201623 1.29876,0.201623 0.478809,0 0.899939,-0.07547 1.263848,-0.225481 v 0.05819 h 2.267594 v -0.113176 c -0.18692,-0.0099 -0.339304,-0.03593 -0.45736,-0.07855 -0.114775,-0.04263 -0.218031,-0.111468 -0.309851,-0.206568 -0.101655,-0.104938 -0.172161,-0.237902 -0.211515,-0.398589 -0.03607,-0.160686 -0.05412,-0.409947 -0.05412,-0.747718 v -0.0038 -0.432041 -3.873005 l 2.518384,5.853439 h 0.103284 l 2.533222,-5.942177 v 4.397572 c 0,0.33449 -0.0197,0.583751 -0.05906,0.747718 -0.03607,0.160686 -0.104909,0.293651 -0.206568,0.398588 -0.09182,0.09182 -0.196742,0.160662 -0.314798,0.206569 -0.114775,0.04263 -0.267159,0.06872 -0.45736,0.07855 V 27.1985 h 1.077355 2.065971 3.807252 l 0.06372,-2.016802 -0.11783,-0.0099 c -0.06231,0.304978 -0.131145,0.550904 -0.206568,0.737827 -0.07215,0.18692 -0.165691,0.354302 -0.280467,0.501873 -0.170526,0.216435 -0.390369,0.377148 -0.659272,0.482089 -0.265625,0.101653 -0.593432,0.152452 -0.983672,0.152452 -0.373843,0 -0.673898,-0.05412 -0.900171,-0.162345 -0.226273,-0.111497 -0.396697,-0.285254 -0.511473,-0.521366 -0.06558,-0.134454 -0.110007,-0.30821 -0.132961,-0.521366 -0.02295,-0.213156 -0.03433,-0.53792 -0.03433,-0.974069 v -2.838129 c 0,-0.34433 0.01971,-0.59859 0.05906,-0.762556 0.03936,-0.163967 0.114564,-0.299973 0.22606,-0.40819 0.08855,-0.08526 0.190421,-0.147722 0.305197,-0.187075 0.114777,-0.03936 0.262159,-0.06378 0.442522,-0.07361 v -0.113176 h -1.077063 -2.021749 -0.04422 v 0.10532 l -2.1646,5.153145 -2.129688,-5.258465 h -0.977852 c -0.135307,0 0,0 -0.135307,0 h -1.021784 v 0.01077 C 36.290424,20.375205 35.917597,20.31195 35.564063,20.31195 Z m 0.06401,0.162344 c 0.245948,0 0.467167,0.03942 0.663927,0.118122 0.196759,0.07871 0.386893,0.205002 0.570536,0.378806 0.242669,0.229553 0.428093,0.481855 0.555987,0.75732 0.07215,0.154127 0.165691,0.388679 0.280467,0.703494 0.0034,0.0084 0.01043,0.02721 0.01426,0.03695 v 3.184929 c 0,0.06166 -0.0013,0.117247 -0.0026,0.17311 -0.06933,0.18617 -0.151743,0.348586 -0.247881,0.486162 -0.163965,0.236112 -0.395184,0.419579 -0.693603,0.550752 -0.298418,0.127894 -0.634559,0.19202 -1.008401,0.19202 -0.747685,0 -1.347795,-0.25926 -1.800343,-0.777394 -0.245949,-0.278743 -0.432748,-0.62459 -0.560642,-1.037786 -0.127894,-0.413195 -0.192021,-0.877298 -0.192021,-1.392152 0,-0.606675 0.09354,-1.147657 0.280467,-1.62316 0.131174,-0.33777 0.299931,-0.637824 0.506528,-0.900169 0.206596,-0.265626 0.429773,-0.469093 0.669164,-0.610104 0.272184,-0.160687 0.593614,-0.2409 0.964179,-0.2409 z"
                   sodipodi:nodetypes="scccsccscccccccsccccccscccccccccccccsccsssscsccccccccccccsssccccscccscsscccsss" />
              </g>
            </g>
          </g>
          <g
             id="g2216"
             transform="translate(-2.2897034,-1.0407743)">
            <rect
               style="font-size:10.5833px;line-height:1.25;font-family:'Baskerville Old Face';-inkscape-font-specification:'Baskerville Old Face';opacity:0.8;fill:#000000;stroke-width:0.893952"
               id="rect226"
               width="1.6913216"
               height="58.769321"
               x="180.77023"
               y="134.51239"
               transform="matrix(0.25664571,0,0,0.25664571,-16.37235,9.0199039)" />
            <text
               xml:space="preserve"
               style="font-size:9.58972px;line-height:1.25;font-family:'Baskerville Old Face';-inkscape-font-specification:'Baskerville Old Face';text-align:start;text-anchor:start;stroke-width:0.0634323"
               x="189.89937"
               y="147.3828"
               id="text192"
               transform="matrix(0.25393797,0,0,0.25938232,-16.37235,9.0199039)"><tspan
                 sodipodi:role="line"
                 id="tspan188"
                 x="189.89937"
                 y="147.3828"
                 style="text-align:start;text-anchor:start;stroke-width:0.0634323">BRAINSCORE </tspan><tspan
                 sodipodi:role="line"
                 x="189.89937"
                 y="159.36995"
                 style="text-align:start;text-anchor:start;stroke-width:0.0634323"
                 id="tspan194">CENTRE FOR </tspan><tspan
                 sodipodi:role="line"
                 x="189.89937"
                 y="171.3571"
                 style="text-align:start;text-anchor:start;stroke-width:0.0634323"
                 id="tspan190">MANAGEMENT </tspan><tspan
                 sodipodi:role="line"
                 x="189.89937"
                 y="183.34425"
                 style="text-align:start;text-anchor:start;stroke-width:0.0634323"
                 id="tspan196">AND LEADERSHIP</tspan></text>
            <g
               id="g1532"
               transform="matrix(1.4436158,0,0,1.6851597,-51.033945,12.235562)">
              <g
                 id="g1530">
                <g
                   id="g1524"
                   transform="matrix(0.82849296,0,0,0.82849296,11.459881,5.0820174)">
                  <path
                     id="path1520"
                     style="fill:#d4aa00;fill-opacity:1;stroke-width:0.999999"
                     d="m 107.38477,69.054688 v 0.449218 c 0.74218,0.03906 1.34765,0.143228 1.8164,0.3125 0.46875,0.16927 0.87891,0.44271 1.23047,0.820313 0.41668,0.416665 0.69663,0.944011 0.83984,1.582031 0.14322,0.638017 0.21485,1.627607 0.21485,2.96875 v 14.394531 c 0,1.34114 -0.0716,2.330731 -0.21485,2.96875 -0.14322,0.63802 -0.42317,1.165366 -0.83984,1.582031 -0.35156,0.364574 -0.76172,0.638014 -1.23047,0.820313 -0.45572,0.169272 -1.0612,0.273445 -1.8164,0.3125 v 0.449219 h 8.3789 V 89.914062 81.867188 81.261719 80.054688 69.660156 h 1.81641 c 1.39322,0 2.42838,0.07813 3.10547,0.234375 0.6901,0.156251 1.30208,0.449222 1.83593,0.878907 0.61198,0.49479 1.10026,1.191409 1.46485,2.089843 0.3776,0.885415 0.5664,1.822919 0.5664,2.8125 0,0.937497 -0.18229,1.796879 -0.54687,2.578125 -0.33073,0.722697 -0.80483,1.32007 -1.41211,1.800782 3.51551,-0.08305 6.48748,-1.957467 6.5293,-5.003907 0,-1.054684 -0.23438,-2.00521 -0.70313,-2.851562 -0.45573,-0.846352 -1.10677,-1.52995 -1.95312,-2.050781 -0.97656,-0.585933 -2.20704,-0.937497 -3.69141,-1.054688 -0.40364,-0.02605 -1.25651,-0.03906 -2.55859,-0.03906 z"
                     sodipodi:nodetypes="ccscssssccccccccccscccsccccccsc"
                     transform="scale(0.26458333)" />
                  <path
                     id="path1522"
                     style="fill:#ff6600;stroke-width:0.207633"
                     d="m 32.542076,19.661659 c -0.323841,0.0432 -0.614968,0.138586 -0.871589,0.288647 -0.203968,0.118256 -0.363613,0.260091 -0.479194,0.425651 -0.112178,0.165557 -0.168078,0.337329 -0.168078,0.515788 0,0.290264 0.146396,0.536713 0.438748,0.738822 h 3.85e-4 c 0.105328,0.102623 0.242659,0.203297 0.412426,0.302899 0.173369,0.09971 0.421527,0.22282 0.744472,0.367871 0.367136,0.166202 0.638577,0.30338 0.815349,0.412168 0.180168,0.108787 0.320134,0.222155 0.418717,0.340007 0.09519,0.114831 0.169932,0.252653 0.224317,0.412811 0.05779,0.160159 0.08642,0.316989 0.08642,0.471104 0,0.356581 -0.127036,0.651104 -0.381995,0.883788 -0.254958,0.232684 -0.57837,0.348867 -0.969302,0.348867 -0.407397,0 -0.7639,-0.135489 -1.070869,-0.403309 v 0.326653 c 0.404532,0.154116 0.82623,0.231123 1.264755,0.231123 0.479324,0 0.895674,-0.09519 1.249218,-0.285565 0.353539,-0.193397 0.618544,-0.466928 0.795318,-0.820486 0.125778,-0.253838 0.188622,-0.519747 0.188622,-0.797758 -0.05136,-0.932478 -0.791099,-1.570423 -1.56791,-1.82933 -0.05033,-0.01618 -0.04577,-0.01454 -0.05033,-0.01618 l -0.716993,-0.219053 c -0.730877,-0.219311 -1.096292,-0.508541 -1.096292,-0.867608 0,-0.09031 0.02579,-0.180367 0.07678,-0.270671 0.05439,-0.0903 0.127525,-0.168963 0.21931,-0.235617 0.121148,-0.08959 0.268616,-0.152021 0.43772,-0.192473 z"
                     sodipodi:nodetypes="cccscccccccsssccsccccccscccc" />
                </g>
                <g
                   aria-label="CML"
                   id="g1528"
                   style="font-size:9.89827px;line-height:1.25;font-family:'Baskerville Old Face';-inkscape-font-specification:'Baskerville Old Face';fill:#803300;stroke-width:0.0654729"
                   transform="matrix(0.82849296,0,0,0.82849296,14.129517,3.3908551)">
                  <path
                     id="path1526"
                     style="fill:#cc9408;stroke-width:0.0666358"
                     d="m 35.564084,20.31194 c -0.416475,0 -0.833117,0.0705 -1.249591,0.211514 -0.413196,0.137731 -0.768752,0.324532 -1.067172,0.560644 -0.386959,0.308255 -0.688681,0.716565 -0.905117,1.22486 -0.216435,0.505016 -0.324688,1.057664 -0.324688,1.657781 -2e-6,0.783758 0.185132,1.459371 0.555695,2.026695 0.370565,0.564043 0.885462,0.95431 1.544605,1.170745 0.413196,0.134451 0.846215,0.201623 1.29876,0.201623 0.478809,0 0.899939,-0.07547 1.263848,-0.225481 v 0.05819 h 2.267594 v -0.113176 c -0.18692,-0.0099 -0.339304,-0.03593 -0.45736,-0.07855 -0.114775,-0.04263 -0.218031,-0.111468 -0.309851,-0.206568 -0.101655,-0.104938 -0.172161,-0.237902 -0.211515,-0.398589 -0.03607,-0.160686 -0.05412,-0.409947 -0.05412,-0.747718 v -0.0038 -0.432041 -3.873005 l 2.518384,5.853439 h 0.103284 l 2.533222,-5.942177 v 4.397572 c 0,0.33449 -0.0197,0.583751 -0.05906,0.747718 -0.03607,0.160686 -0.104909,0.293651 -0.206568,0.398588 -0.09182,0.09182 -0.196742,0.160662 -0.314798,0.206569 -0.114775,0.04263 -0.267159,0.06872 -0.45736,0.07855 V 27.1985 h 1.077355 2.065971 3.807252 l 0.06372,-2.016802 -0.11783,-0.0099 c -0.06231,0.304978 -0.131145,0.550904 -0.206568,0.737827 -0.07215,0.18692 -0.165691,0.354302 -0.280467,0.501873 -0.170526,0.216435 -0.390369,0.377148 -0.659272,0.482089 -0.265625,0.101653 -0.593432,0.152452 -0.983672,0.152452 -0.373843,0 -0.673898,-0.05412 -0.900171,-0.162345 -0.226273,-0.111497 -0.396697,-0.285254 -0.511473,-0.521366 -0.06558,-0.134454 -0.110007,-0.30821 -0.132961,-0.521366 -0.02295,-0.213156 -0.03433,-0.53792 -0.03433,-0.974069 v -2.838129 c 0,-0.34433 0.01971,-0.59859 0.05906,-0.762556 0.03936,-0.163967 0.114564,-0.299973 0.22606,-0.40819 0.08855,-0.08526 0.190421,-0.147722 0.305197,-0.187075 0.114777,-0.03936 0.262159,-0.06378 0.442522,-0.07361 v -0.113176 h -1.077063 -2.021749 -0.04422 v 0.10532 l -2.1646,5.153145 -2.129688,-5.258465 h -0.977852 c -0.135307,0 0,0 -0.135307,0 h -1.021784 v 0.01077 C 36.290424,20.375205 35.917597,20.31195 35.564063,20.31195 Z m 0.06401,0.162344 c 0.245948,0 0.467167,0.03942 0.663927,0.118122 0.196759,0.07871 0.386893,0.205002 0.570536,0.378806 0.242669,0.229553 0.428093,0.481855 0.555987,0.75732 0.07215,0.154127 0.165691,0.388679 0.280467,0.703494 0.0034,0.0084 0.01043,0.02721 0.01426,0.03695 v 3.184929 c 0,0.06166 -0.0013,0.117247 -0.0026,0.17311 -0.06933,0.18617 -0.151743,0.348586 -0.247881,0.486162 -0.163965,0.236112 -0.395184,0.419579 -0.693603,0.550752 -0.298418,0.127894 -0.634559,0.19202 -1.008401,0.19202 -0.747685,0 -1.347795,-0.25926 -1.800343,-0.777394 -0.245949,-0.278743 -0.432748,-0.62459 -0.560642,-1.037786 -0.127894,-0.413195 -0.192021,-0.877298 -0.192021,-1.392152 0,-0.606675 0.09354,-1.147657 0.280467,-1.62316 0.131174,-0.33777 0.299931,-0.637824 0.506528,-0.900169 0.206596,-0.265626 0.429773,-0.469093 0.669164,-0.610104 0.272184,-0.160687 0.593614,-0.2409 0.964179,-0.2409 z"
                     sodipodi:nodetypes="scccsccscccccccsccccccscccccccccccccsccsssscsccccccccccccsssccccscccscsscccsss" />
                </g>
              </g>
            </g>
          </g>
        </g>
      </g>
    </g>
  </g>
</svg>
