<?xml version="1.0" encoding="UTF-8" standalone="no"?>
<svg
   xmlns:dc="http://purl.org/dc/elements/1.1/"
   xmlns:cc="http://creativecommons.org/ns#"
   xmlns:rdf="http://www.w3.org/1999/02/22-rdf-syntax-ns#"
   xmlns:svg="http://www.w3.org/2000/svg"
   xmlns="http://www.w3.org/2000/svg"
   xmlns:sodipodi="http://sodipodi.sourceforge.net/DTD/sodipodi-0.dtd"
   xmlns:inkscape="http://www.inkscape.org/namespaces/inkscape"
   width="297mm"
   height="210mm"
   viewBox="0 0 297 210"
   version="1.1"
   id="svg917"
   inkscape:export-filename="C:\Users\Marx\Desktop\inkscape logos\bs logo.png"
   inkscape:export-xdpi="96"
   inkscape:export-ydpi="96"
   inkscape:version="1.0.1 (3bc2e813f5, 2020-09-07)"
   sodipodi:docname="drawing-2.svg">
  <defs
     id="defs911" />
  <sodipodi:namedview
     id="base"
     pagecolor="#ffffff"
     bordercolor="#666666"
     borderopacity="1.0"
     inkscape:pageopacity="0.0"
     inkscape:pageshadow="2"
     inkscape:zoom="0.32621951"
     inkscape:cx="400"
     inkscape:cy="560"
     inkscape:document-units="mm"
     inkscape:current-layer="layer1"
     inkscape:document-rotation="0"
     showgrid="false"
     inkscape:window-width="1267"
     inkscape:window-height="729"
     inkscape:window-x="-32000"
     inkscape:window-y="-32000"
     inkscape:window-maximized="0" />
  <metadata
     id="metadata914">
    <rdf:RDF>
      <cc:Work
         rdf:about="">
        <dc:format>image/svg+xml</dc:format>
        <dc:type
           rdf:resource="http://purl.org/dc/dcmitype/StillImage" />
        <dc:title></dc:title>
      </cc:Work>
    </rdf:RDF>
  </metadata>
  <g
     inkscape:label="Layer 1"
     inkscape:groupmode="layer"
     id="layer1">
    <rect
       style="opacity:1;fill:#ffffff;stroke-width:1"
       id="rect1522"
       width="297.65872"
       height="209.25327"
       x="0"
       y="0.81105918"
       inkscape:export-xdpi="96"
       inkscape:export-ydpi="96" />
    <g
       id="g1097"
       transform="matrix(2.0671059,0,0,2.1114238,116.13895,592.10593)"
       style="font-size:10.5833px;line-height:1.25;font-family:'Baskerville Old Face';-inkscape-font-specification:'Baskerville Old Face';stroke-width:0.264583">
      <g
         id="g1059"
         style="font-size:10.5833px;line-height:1.25;font-family:'Baskerville Old Face';-inkscape-font-specification:'Baskerville Old Face';stroke-width:0.264583"
         transform="matrix(4.0245985,0,0,4.0245985,-129.23024,-297.16635)">
        <path
           id="path182"
           style="fill:#8c5000;fill-opacity:1;stroke-width:0.999999"
           d="m 107.38477,69.054688 v 0.449218 c 0.74218,0.03906 1.34765,0.143228 1.8164,0.3125 0.46875,0.16927 0.87891,0.44271 1.23047,0.820313 0.41668,0.416665 0.69663,0.944011 0.83984,1.582031 0.14322,0.638017 0.21485,1.627607 0.21485,2.96875 v 14.394531 c 0,1.34114 -0.0716,2.330731 -0.21485,2.96875 -0.14322,0.63802 -0.42317,1.165366 -0.83984,1.582031 -0.35156,0.364574 -0.76172,0.638014 -1.23047,0.820313 -0.45572,0.169272 -1.0612,0.273445 -1.8164,0.3125 v 0.449219 h 8.3789 V 89.914062 81.867188 81.261719 80.054688 69.660156 h 1.81641 c 1.39322,0 2.42838,0.07813 3.10547,0.234375 0.6901,0.156251 1.30208,0.449222 1.83593,0.878907 0.61198,0.49479 1.10026,1.191409 1.46485,2.089843 0.3776,0.885415 0.5664,1.822919 0.5664,2.8125 0,0.937497 -0.18229,1.796879 -0.54687,2.578125 -0.33073,0.722697 -0.80483,1.32007 -1.41211,1.800782 3.51551,-0.08305 6.48748,-1.957467 6.5293,-5.003907 0,-1.054684 -0.23438,-2.00521 -0.70313,-2.851562 -0.45573,-0.846352 -1.10677,-1.52995 -1.95312,-2.050781 -0.97656,-0.585933 -2.20704,-0.937497 -3.69141,-1.054688 -0.40364,-0.02605 -1.25651,-0.03906 -2.55859,-0.03906 z"
           transform="scale(0.26458333)"
           sodipodi:nodetypes="ccscssssccccccccccscccsccccccsc" />
        <path
           id="path202"
           style="fill:#ff6600;stroke-width:0.207633"
           d="m 32.542076,19.661659 c -0.323841,0.0432 -0.614968,0.138586 -0.871589,0.288647 -0.203968,0.118256 -0.363613,0.260091 -0.479194,0.425651 -0.112178,0.165557 -0.168078,0.337329 -0.168078,0.515788 0,0.290264 0.146396,0.536713 0.438748,0.738822 h 3.85e-4 c 0.105328,0.102623 0.242659,0.203297 0.412426,0.302899 0.173369,0.09971 0.421527,0.22282 0.744472,0.367871 0.367136,0.166202 0.638577,0.30338 0.815349,0.412168 0.180168,0.108787 0.320134,0.222155 0.418717,0.340007 0.09519,0.114831 0.169932,0.252653 0.224317,0.412811 0.05779,0.160159 0.08642,0.316989 0.08642,0.471104 0,0.356581 -0.127036,0.651104 -0.381995,0.883788 -0.254958,0.232684 -0.57837,0.348867 -0.969302,0.348867 -0.407397,0 -0.7639,-0.135489 -1.070869,-0.403309 v 0.326653 c 0.404532,0.154116 0.82623,0.231123 1.264755,0.231123 0.479324,0 0.895674,-0.09519 1.249218,-0.285565 0.353539,-0.193397 0.618544,-0.466928 0.795318,-0.820486 0.125778,-0.253838 0.188622,-0.519747 0.188622,-0.797758 -0.05136,-0.932478 -0.791099,-1.570423 -1.56791,-1.82933 -0.05033,-0.01618 -0.04577,-0.01454 -0.05033,-0.01618 l -0.716993,-0.219053 c -0.730877,-0.219311 -1.096292,-0.508541 -1.096292,-0.867608 0,-0.09031 0.02579,-0.180367 0.07678,-0.270671 0.05439,-0.0903 0.127525,-0.168963 0.21931,-0.235617 0.121148,-0.08959 0.268616,-0.152021 0.43772,-0.192473 z"
           sodipodi:nodetypes="cccscccccccsssccsccccccscccc" />
      </g>
      <rect
         style="font-size:10.5833px;line-height:1.25;font-family:'Baskerville Old Face';-inkscape-font-specification:'Baskerville Old Face';opacity:0.8;fill:#000000;stroke-width:0.147742"
         id="rect226"
         width="0.28250179"
         height="9.6102123"
         x="36.532719"
         y="16.992523"
         transform="matrix(4.0245985,0,0,4.0245985,-129.23024,-297.16635)" />
      <text
         xml:space="preserve"
         style="font-size:6.37853px;line-height:1.25;font-family:'Baskerville Old Face';-inkscape-font-specification:'Baskerville Old Face';text-align:start;text-anchor:start;stroke-width:0.0421913"
         x="22.589304"
         y="-219.27373"
         id="text192"><tspan
           sodipodi:role="line"
           id="tspan188"
           x="22.589304"
           y="-219.27373"
           style="text-align:start;text-anchor:start;stroke-width:0.0421913">BRAINSCORE </tspan><tspan
           sodipodi:role="line"
           x="22.589304"
           y="-211.30057"
           style="text-align:start;text-anchor:start;stroke-width:0.0421913"
           id="tspan194">CENTRE FOR </tspan><tspan
           sodipodi:role="line"
           x="22.589304"
           y="-203.32741"
           style="text-align:start;text-anchor:start;stroke-width:0.0421913"
           id="tspan190">MANAGEMENT </tspan><tspan
           sodipodi:role="line"
           x="22.589304"
           y="-195.35423"
           style="text-align:start;text-anchor:start;stroke-width:0.0421913"
           id="tspan196">AND LEADERSHIP</tspan></text>
    </g>
    <g
       id="g186"
       transform="matrix(4.4857499,0,0,4.4857499,-40.285072,-218.413)"
       style="font-size:10.5833px;line-height:1.25;font-family:'Baskerville Old Face';-inkscape-font-specification:'Baskerville Old Face';stroke-width:0.264583">
      <g
         id="g1065"
         transform="translate(18.689383,32.589025)">
        <g
           id="g1082">
          <text
             xml:space="preserve"
             style="font-size:10.5833px;line-height:1.25;font-family:'Baskerville Old Face';-inkscape-font-specification:'Baskerville Old Face';text-align:center;text-anchor:middle;stroke-width:0.0700042"
             x="61.628422"
             y="-38.270088"
             id="text172"
             transform="matrix(0.248472,0,0,0.248472,13.420713,41.248491)"><tspan
               sodipodi:role="line"
               id="tspan170"
               x="61.628418"
               y="-38.270088"
               style="text-align:center;text-anchor:middle;stroke-width:0.0700042">BRAINSCORE  CENTRE FOR </tspan><tspan
               sodipodi:role="line"
               x="61.628422"
               y="-25.040964"
               style="text-align:center;text-anchor:middle;stroke-width:0.0700042"
               id="tspan174">MANAGEMENT AND LEADERSHIP</tspan></text>
          <g
             id="g1071"
             transform="translate(-3.0737402,2.0412225)">
            <path
               id="path1061"
               style="fill:#8c5000;fill-opacity:1;stroke-width:0.999999"
               d="m 107.38477,69.054688 v 0.449218 c 0.74218,0.03906 1.34765,0.143228 1.8164,0.3125 0.46875,0.16927 0.87891,0.44271 1.23047,0.820313 0.41668,0.416665 0.69663,0.944011 0.83984,1.582031 0.14322,0.638017 0.21485,1.627607 0.21485,2.96875 v 14.394531 c 0,1.34114 -0.0716,2.330731 -0.21485,2.96875 -0.14322,0.63802 -0.42317,1.165366 -0.83984,1.582031 -0.35156,0.364574 -0.76172,0.638014 -1.23047,0.820313 -0.45572,0.169272 -1.0612,0.273445 -1.8164,0.3125 v 0.449219 h 8.3789 V 89.914062 81.867188 81.261719 80.054688 69.660156 h 1.81641 c 1.39322,0 2.42838,0.07813 3.10547,0.234375 0.6901,0.156251 1.30208,0.449222 1.83593,0.878907 0.61198,0.49479 1.10026,1.191409 1.46485,2.089843 0.3776,0.885415 0.5664,1.822919 0.5664,2.8125 0,0.937497 -0.18229,1.796879 -0.54687,2.578125 -0.33073,0.722697 -0.80483,1.32007 -1.41211,1.800782 3.51551,-0.08305 6.48748,-1.957467 6.5293,-5.003907 0,-1.054684 -0.23438,-2.00521 -0.70313,-2.851562 -0.45573,-0.846352 -1.10677,-1.52995 -1.95312,-2.050781 -0.97656,-0.585933 -2.20704,-0.937497 -3.69141,-1.054688 -0.40364,-0.02605 -1.25651,-0.03906 -2.55859,-0.03906 z"
               sodipodi:nodetypes="ccscssssccccccccccscccsccccccsc"
               transform="scale(0.26458333)" />
            <path
               id="path1063"
               style="fill:#ff6600;stroke-width:0.207633"
               d="m 32.542076,19.661659 c -0.323841,0.0432 -0.614968,0.138586 -0.871589,0.288647 -0.203968,0.118256 -0.363613,0.260091 -0.479194,0.425651 -0.112178,0.165557 -0.168078,0.337329 -0.168078,0.515788 0,0.290264 0.146396,0.536713 0.438748,0.738822 h 3.85e-4 c 0.105328,0.102623 0.242659,0.203297 0.412426,0.302899 0.173369,0.09971 0.421527,0.22282 0.744472,0.367871 0.367136,0.166202 0.638577,0.30338 0.815349,0.412168 0.180168,0.108787 0.320134,0.222155 0.418717,0.340007 0.09519,0.114831 0.169932,0.252653 0.224317,0.412811 0.05779,0.160159 0.08642,0.316989 0.08642,0.471104 0,0.356581 -0.127036,0.651104 -0.381995,0.883788 -0.254958,0.232684 -0.57837,0.348867 -0.969302,0.348867 -0.407397,0 -0.7639,-0.135489 -1.070869,-0.403309 v 0.326653 c 0.404532,0.154116 0.82623,0.231123 1.264755,0.231123 0.479324,0 0.895674,-0.09519 1.249218,-0.285565 0.353539,-0.193397 0.618544,-0.466928 0.795318,-0.820486 0.125778,-0.253838 0.188622,-0.519747 0.188622,-0.797758 -0.05136,-0.932478 -0.791099,-1.570423 -1.56791,-1.82933 -0.05033,-0.01618 -0.04577,-0.01454 -0.05033,-0.01618 l -0.716993,-0.219053 c -0.730877,-0.219311 -1.096292,-0.508541 -1.096292,-0.867608 0,-0.09031 0.02579,-0.180367 0.07678,-0.270671 0.05439,-0.0903 0.127525,-0.168963 0.21931,-0.235617 0.121148,-0.08959 0.268616,-0.152021 0.43772,-0.192473 z"
               sodipodi:nodetypes="cccscccccccsssccsccccccscccc" />
          </g>
        </g>
      </g>
    </g>
  </g>
</svg>
