<?xml version="1.0" encoding="UTF-8" standalone="no"?>
<svg
   xmlns:dc="http://purl.org/dc/elements/1.1/"
   xmlns:cc="http://creativecommons.org/ns#"
   xmlns:rdf="http://www.w3.org/1999/02/22-rdf-syntax-ns#"
   xmlns:svg="http://www.w3.org/2000/svg"
   xmlns="http://www.w3.org/2000/svg"
   xmlns:sodipodi="http://sodipodi.sourceforge.net/DTD/sodipodi-0.dtd"
   xmlns:inkscape="http://www.inkscape.org/namespaces/inkscape"
   width="297mm"
   height="210mm"
   viewBox="0 0 297 210"
   version="1.1"
   id="svg135"
   inkscape:export-filename="C:\Users\Marx\Desktop\inkscape logos\TRAVELLER.png"
   inkscape:export-xdpi="96"
   inkscape:export-ydpi="96"
   inkscape:version="1.0.1 (3bc2e813f5, 2020-09-07)"
   sodipodi:docname="TRaveller.svg">
  <defs
     id="defs129" />
  <sodipodi:namedview
     id="base"
     pagecolor="#ffffff"
     bordercolor="#666666"
     borderopacity="1.0"
     inkscape:pageopacity="0.0"
     inkscape:pageshadow="2"
     inkscape:zoom="0.32621951"
     inkscape:cx="-122.65421"
     inkscape:cy="560"
     inkscape:document-units="mm"
     inkscape:current-layer="layer1"
     inkscape:document-rotation="0"
     showgrid="false"
     inkscape:window-width="1267"
     inkscape:window-height="729"
     inkscape:window-x="-32000"
     inkscape:window-y="-32000"
     inkscape:window-maximized="0" />
  <metadata
     id="metadata132">
    <rdf:RDF>
      <cc:Work
         rdf:about="">
        <dc:format>image/svg+xml</dc:format>
        <dc:type
           rdf:resource="http://purl.org/dc/dcmitype/StillImage" />
        <dc:title></dc:title>
      </cc:Work>
    </rdf:RDF>
  </metadata>
  <g
     inkscape:label="Layer 1"
     inkscape:groupmode="layer"
     id="layer1">
    <g
       id="g127"
       transform="matrix(0.14794957,0,0,0.14794957,-4.6158234,24.947833)">
      <path
         id="path108"
         style="fill:#00ffff;stroke-width:2.66667"
         d="m 1201.7167,595.56955 c 4.0589,-2.31845 7.3674,-4.43867 9.5921,-6.21011 l 9.6624,-7.69403 -10.1983,-1.73034 c -5.6096,-0.95155 -20.081,-3.70719 -32.1584,-6.12182 l -21.9592,-4.38979 6.7133,-27.34882 6.7133,-27.34882 -20.779,9.93545 c -27.9546,13.36785 -49.8608,19.28433 -78.2883,21.1428 -122.58149,8.01392 -219.75583,-96.27958 -204.352,-219.32296 8.0691,-64.45412 55.83979,-127.44545 114.34076,-150.7724 23.39834,-9.32996 50.46884,-15.63208 67.51684,-15.71768 11.6426,-0.0585 14.0491,-1.12729 40.0911,-17.80615 l 27.7053,-17.74351 -7.4391,-9.8614 c -4.0913,-5.42461 -12.5042,-17.021305 -18.6956,-25.768563 -12.8564,-18.163351 -13.7344,-18.452719 -49.3689,-16.345281 -24.825,1.468182 -50.58778,6.418904 -73.29024,14.084896 -20.7048,6.991444 -73.09495,36.471838 -89.63362,50.437418 -68.46195,57.81083 -105.97808,145.50839 -100.4731,234.86228 2.81496,45.69087 12.55077,76.45738 38.30606,121.06685 27.11546,46.96535 47.91151,69.02757 92.10203,97.705 64.72769,42.00484 150.79057,54.99368 225.66767,34.05931 18.9299,-5.29245 50.6359,-19.0657 68.2249,-29.11233 z m 73.3495,-63.01347 c 1.5661,-0.9042 9.854,-12.18634 18.4162,-25.07088 l 15.5679,-23.42636 -18.3317,5.26812 c -10.0813,2.89763 -18.9363,5.50204 -19.6788,5.78649 -0.7424,0.28446 -0.7809,9.19441 -0.085,19.80108 0.7947,12.12207 2.3221,18.67492 4.1119,17.64155 z m -31.9448,18.44336 c 1.5477,-0.89356 -1.0102,-48.91637 -2.627,-49.31949 -0.6196,-0.15448 -8.8669,0.7138 -18.3264,1.92955 -9.4595,1.21576 -17.7616,2.43325 -18.4514,2.70531 -0.6897,0.27201 -3.0084,9.30931 -5.1525,20.08334 l -3.8994,19.58986 10.0085,1.65947 c 13.4866,2.23682 36.8513,4.2739 38.4482,3.35196 z m 71.1826,-101.14172 -12.2434,-22.7257 -12.2407,-22.725 -17.2312,11.67821 c -9.4765,6.42315 -17.3812,12.07253 -17.5671,12.55329 -0.6471,1.67335 9.2042,37.73338 10.3956,38.05261 2.0592,0.55177 31.3967,-8.85741 40.3551,-12.94279 z m 16.0465,-28.20653 2.7909,-9.07627 c 2.6662,-8.67032 7.4313,-47.88245 6.0992,-50.18977 -1.033,-1.78918 -27.9608,24.33477 -27.2955,26.48063 0.334,1.07733 4.6115,8.89365 9.506,17.37117 z m -95.7891,50.44377 c 0.205,-0.14773 0.3296,-0.28587 0.3637,-0.41297 0.2725,-1.01677 -0.8238,-7.44386 -2.4341,-14.28237 l -2.9268,-12.43271 -10.1722,15.4398 c -5.595,8.49217 -10.3131,15.85027 -10.4851,16.35112 -0.172,0.50086 5.5005,-0.0214 12.6054,-1.15913 6.2167,-0.99553 11.6141,-2.46962 13.0491,-3.50374 z m 26.9007,-79.78164 c 3.0484,-1.80131 5.8622,-3.76461 7.3402,-5.1964 4.0964,-3.96812 3.8152,-4.76034 -5.9203,-16.71922 l -10.2196,-12.55239 -2.6254,20.66756 -2.6237,20.66658 8.5431,-3.94905 c 1.7622,-0.81446 3.6766,-1.83628 5.5057,-2.91708 z m 32.6888,-25.5688 c 2.6631,-1.23883 31.8674,-29.9314 36.7331,-36.16935 2.6763,-3.43114 4.3248,-7.17326 3.6642,-8.31753 -1.4759,-2.5563 -40.5702,-28.50322 -46.2488,-30.69501 -2.2561,-0.87079 -4.55,-0.91808 -5.0973,-0.10618 -3.1787,4.71598 -15.8667,29.19796 -17.7028,34.15818 -2.0686,5.5886 -1.4418,6.72289 12.8915,23.34833 8.2862,9.61126 15.3001,17.62722 15.587,17.81382 0.029,0.0189 0.087,0.008 0.1731,-0.0323 z m 37.3432,-78.42909 c 0.7513,-0.53333 0.3186,-2.37816 -0.4071,-5.3378 -2.3981,-9.78068 -17.0278,-49.4939 -20.3865,-55.33779 -1.9789,-3.444 -3.5344,-1.28252 -8.109,11.26717 -10.3742,28.45978 -10.8386,26.78028 11.1509,40.22812 11.9591,7.31364 16.4995,10.06917 17.7517,9.1803 z m -84.022,19.00883 c 3.2794,-2.45419 13.9982,-26.30917 12.6184,-28.69905 -0.9316,-1.61353 -7.4367,-5.08208 -14.4571,-7.70846 l -12.7655,-4.77451 4.0962,11.38774 c 2.2525,6.26345 5.2166,15.51957 6.5872,20.5696 1.3706,5.05004 2.8862,9.28772 3.3689,9.41706 0.1467,0.0393 0.3333,-0.0288 0.5519,-0.19238 z m 23.7058,-53.19441 c 3.2298,-2.02179 17.8585,-51.86062 15.2935,-52.38583 -0.9274,-0.1899 -12.7113,-1.79343 -26.1858,-3.56208 -13.4744,-1.76867 -25.2826,-2.76192 -26.241,-2.2086 -1.4334,0.82759 -3.738,34.79119 -2.8704,42.30178 0.2783,2.40891 35.8038,16.59342 39.8576,15.91425 0.045,-0.008 0.095,-0.0274 0.1461,-0.0595 z m -61.6057,-21.75878 0.861,-18.55957 0.8609,-18.55956 -18.4548,0.79708 c -10.1501,0.43827 -18.6657,0.84996 -18.9228,0.91617 -0.257,0.0662 4.5935,4.47373 10.7786,9.79396 6.185,5.32025 14.3133,13.25991 18.0618,17.6434 z m 68.8267,-55.0933 c 0.049,-0.0458 0.058,-0.097 0.025,-0.152 -2.7635,-4.56158 -26.9103,-29.0811 -38.5432,-39.13785 -7.3253,-6.33269 -13.3773,-11.15241 -13.4499,-10.70992 -0.073,0.44246 1.1039,11.17699 2.6148,23.85316 l 2.7476,23.04804 23.7991,2.27203 c 12.2719,1.17189 22.0685,1.5131 22.8066,0.82654 z m -68.731,-5.18231 c 0.092,-0.06 0.1476,-0.11867 0.1628,-0.17515 1.3613,-5.08056 -8.3428,-57.39604 -10.5691,-56.97799 -1.4665,0.27539 -12.8531,3.82908 -25.3028,7.8969 -32.3537,10.57122 -31.1211,9.35701 -24.7189,24.33002 12.7592,29.8402 12.2559,29.46673 37.5346,27.84393 11.6614,-0.74865 21.5085,-2.01725 22.8934,-2.91771 z m -68.8746,3.57667 c 0.8113,-0.45095 0.4528,-1.55942 -0.5438,-3.28549 -1.8145,-3.14293 -5.3783,-10.80942 -7.9187,-17.03592 -3.9648,-9.71783 -5.3228,-11.12458 -9.5855,-9.93471 -8.0158,2.23758 -23.5702,11.31787 -25.3523,14.79952 -1.0641,2.07904 6.7828,5.79851 22.2562,10.54886 13.7818,4.23097 19.5951,5.76865 21.1441,4.90774 z m 42.1032,-75.39929 -10.1524,-4.654839 c -5.5834,-2.560261 -22.5138,-8.280672 -37.6231,-12.711869 -15.1093,-4.431162 -27.6733,-7.300401 -27.9209,-6.376176 -0.2477,0.924265 5.6546,10.555335 13.1169,21.40272 l 13.5682,19.723574 17.9819,-6.99895 c 9.8904,-3.84945 20.9185,-7.76011 24.5061,-8.69086 z" />
      <text
         xml:space="preserve"
         style="font-size:360.976px;line-height:1.25;font-family:'Baskerville Old Face';-inkscape-font-specification:'Baskerville Old Face';fill:#0000ff;stroke-width:9.02439"
         x="102.07821"
         y="961.67523"
         id="text116"><tspan
           sodipodi:role="line"
           id="tspan114"
           x="102.07821"
           y="961.67523"
           style="fill:#0000ff;stroke-width:9.02439">TRAVELER</tspan></text>
    </g>
  </g>
</svg>
